<svg id="Слой_1" data-name="Слой 1" xmlns="http://www.w3.org/2000/svg" viewBox="0 0 55.93 40.67"><defs><style>.cls-1{fill:none;stroke:#4caed0;stroke-miterlimit:10;stroke-width:1.85px;}</style></defs><title>hypnotoad-sprite</title><path class="cls-1" d="M52.72,14.48s-2-3.55-2.35-3.81S48.84,9,48.84,9s2.41-.74,2.51-2.22-0.22-3.5-1-3.81a6,6,0,0,0-3.66-.64,2.65,2.65,0,0,0-1.59,1.06,2.93,2.93,0,0,0-1.8.37,3.82,3.82,0,0,0-1.15,2.38,0.71,0.71,0,0,1-1-.16S41,4.26,40.26,3.84,38.95,2.35,38,2.72A3.76,3.76,0,0,0,35.23.92C34,1.15,32.55,1,31.41,3.62a2.87,2.87,0,0,0,0,2,4.21,4.21,0,0,1-1.15,2c-0.71.41-.87,0.15-1.15,1.21s-0.77,4-1.37,4a2,2,0,0,0-1.64.79,2,2,0,0,1-.44.79,3.33,3.33,0,0,0-1.75.32c-0.27.37-.82-0.53-1-0.21s-0.93.32-.87,0.85-1.2.64-1.2,0.64-1.42-.85-1.48-0.64-1.42.16-1.59,0.64-3.17,5.3-3.39,5.19-5-3.1-6.94-2.54c-0.56-.07-0.08-0.71-1-0.58-0.71.37-.51,0.58-0.51,0.58s-3.55,1-4.5,2.54c-0.71,1.64-.48,3.55-0.1,3.6S2.87,26.4,4,26.08C4.53,27,8,30,8.83,30.21a1,1,0,0,1,.87.85S4.68,31,3,32.91s5.9-.37,5.9-0.37-0.44,1-4.15,4.61C3.65,41,9,33.92,12.71,33.76c1.82,0.26,1.31,2.33,2.57,3s1.09-.69,1.09-0.69l-1.09-2.65-0.05-.74s3,1.48,3.83,1.11,2,2.33,6,2.17c0.15,0.82,2.9,1.8,3.28,1.8s2.73,2,3.39,2,0.22-.9,0-1.11-2.51-1.43-2.51-1.43-0.6-1.22,1-.9a32.57,32.57,0,0,1,5.52,2.49s1.2,0.9,1-.21-6.29-3.23-6.29-3.23-0.66-.48.87-0.48,2.08,0.53,2.46.11-0.38-.53-0.38-1,4.32,0.64,5.68-.16A9.11,9.11,0,0,1,42.72,33s0.87,0.37-2.79,1.59c-2.17,1.17,1.19.77,3.83-.32,2.19-1.32-2.68,2.54-3.22,3.07s-0.77.9-.49,1a16.23,16.23,0,0,0,3.83-2.07c0.44-.48,1.86-1.75,2.08-1.27a11.17,11.17,0,0,1,1.53,2.75c0.17,0.29.71,0.53,0.87-.05s-1.64-2.54-1-3,0.82-.53.82-0.79,1.53,0.26,1.64-.37,0.05-1.11.22-1,2.05,0.58,2.23.34a0.87,0.87,0,0,0-.59-1,15.74,15.74,0,0,0,2.19.05,0.72,0.72,0,0,0-.6-1c-0.93-.05-2.41-0.53-2.73-0.37s0-.28-1.21-0.51a6,6,0,0,0-1.47.08l-0.71-.48s2.35-1.69,2.13-3.23-1-2.81-1.15-2.7a1.37,1.37,0,0,1-.38-0.79l1.26-3a5.16,5.16,0,0,0,1.48-1.54,3.65,3.65,0,0,1,.27-1,12.1,12.1,0,0,0,3.17.05c0.55-.26,1.26-0.16,1-1.22-0.51-.55-1.65-0.75-1.8-1.27C52.78,14.54,52.72,14.48,52.72,14.48Z"/></svg>